<svg width="48" height="64" viewBox="0 0 48 64" fill="none" xmlns="http://www.w3.org/2000/svg">
<path d="M46.5 43V28C46.5 26.344 45.156 25 43.5 25H19.5C17.844 25 16.5 26.344 16.5 28V40" stroke="#2B2C2E" stroke-width="3.0" stroke-linecap="round" stroke-linejoin="round"/>
<path d="M16.5 40V28H10.5C5.53 28 1.5 32.03 1.5 37V49C1.5 50.656 2.844 52 4.5 52H6" stroke="#2B2C2E" stroke-width="3.0" stroke-linecap="round" stroke-linejoin="round"/>
<path d="M1.5 40H7.5C9.156 40 10.5 38.656 10.5 37V28" stroke="#2B2C2E" stroke-width="3.0" stroke-linecap="round" stroke-linejoin="round"/>
<path d="M15 46C17.486 46 19.5 48.014 19.5 50.5C19.5 52.986 17.486 55 15 55C12.514 55 10.5 52.986 10.5 50.5C10.5 48.014 12.514 46 15 46Z" stroke="#2B2C2E" stroke-width="3.0" stroke-linecap="round" stroke-linejoin="round"/>
<path d="M39 46C41.486 46 43.5 48.014 43.5 50.5C43.5 52.986 41.486 55 39 55C36.514 55 34.5 52.986 34.5 50.5C34.5 48.014 36.514 46 39 46Z" stroke="#2B2C2E" stroke-width="3.0" stroke-linecap="round" stroke-linejoin="round"/>
<path d="M24 52H30" stroke="#2B2C2E" stroke-width="3.0" stroke-linecap="round" stroke-linejoin="round"/>
<path d="M8.48507 6.06376C7.88809 6.61374 7.83479 7.56063 8.36601 8.17869C8.89724 8.79675 9.81183 8.85193 10.4088 8.30195C18.1769 1.14538 29.9149 1.23905 37.5746 8.51808C38.1633 9.07753 39.0787 9.03696 39.619 8.42746C40.1594 7.81796 40.1202 6.87033 39.5315 6.31088C30.7775 -2.00805 17.3627 -2.11493 8.48507 6.06376Z" fill="#EEC44A"/>
<path d="M13.5151 11.3665C13.0546 10.6903 13.2107 9.75571 13.8638 9.27897C19.8685 4.89573 27.8849 4.89744 33.8892 9.28038C34.5423 9.75713 34.6984 10.6917 34.2379 11.3679C33.7774 12.0441 32.8747 12.2057 32.2216 11.729C27.2169 8.07566 20.5357 8.07455 15.5314 11.7276C14.8783 12.2043 13.9756 12.0427 13.5151 11.3665Z" fill="#EEC44A"/>
<path d="M18.208 15.1452C17.8647 14.3981 18.1714 13.5043 18.893 13.1489C22.0384 11.5997 25.6915 11.5966 28.8397 13.1391C29.562 13.493 29.8705 14.3862 29.5286 15.134C29.1868 15.8818 28.3241 16.2011 27.6018 15.8472C25.2387 14.6893 22.4966 14.6918 20.1362 15.8544C19.4145 16.2098 18.5512 15.8923 18.208 15.1452Z" fill="#EEC44A"/>
</svg>
