<?xml version="1.0" encoding="utf-8"?>
<!-- Generator: Adobe Illustrator 27.4.0, SVG Export Plug-In . SVG Version: 6.00 Build 0)  -->
<svg version="1.1" xmlns="http://www.w3.org/2000/svg" xmlns:xlink="http://www.w3.org/1999/xlink" x="0px" y="0px"
	 viewBox="0 0 1271.9 238.5" style="enable-background:new 0 0 1271.9 238.5;" xml:space="preserve">
<style type="text/css">
	.st0{fill:#FFFFFF;}
	.st1{fill:#FFFFFF;}
	.st2{display:none;}
</style>
<g id="Layer_1">
</g>
<g id="Layer_2">
	<g>
		<g>
			<path class="st0" d="M773.6,175.2h4.4l14.9,42.3h-4.2l-4.5-13h-17.1l-4.5,13h-3.9L773.6,175.2z M783,201l-7.2-21h-0.1l-7.2,21
				H783z"/>
			<path class="st0" d="M823.4,179.1h-13.6v-3.8h31.3v3.8h-13.6v38.4h-4V179.1z"/>
			<path class="st0" d="M841.6,187.5h3.9v5.9h0.1c2.3-3.7,6-6.5,11.9-6.5h0.7l-0.4,3.6c0,0-1.1-0.1-1.2-0.1c-4.9,0-8.8,2.7-11.1,7.5
				v19.5h-3.9V187.5z"/>
			<path class="st0" d="M863.6,176.3h4.2v4.2h-4.2V176.3z M863.7,187.5h3.9v30h-3.9V187.5z"/>
			<path class="st0" d="M876,187.5h3.9v4.7c3-3,6.5-5.3,11-5.3c5.1,0,7.3,2.2,8.3,5.4c3.1-3,6.9-5.4,11.3-5.4c6.2,0,8.7,3.5,8.7,8.9
				v21.7h-3.9v-21c0-4.2-1.4-6.3-5.6-6.3c-3.6,0-6.7,2-10,5.2v22h-3.9v-21c0-4.2-1.4-6.3-5.7-6.3c-3.6,0-6.7,2-10,5.2v22H876V187.5z
				"/>
			<path class="st0" d="M931.4,213.4v4.1h-3.9v-42.2h3.9v16.5c2.4-2.7,5.5-5,10-5c6.9,0,12.4,5.1,12.4,15.6
				c0,10.5-5.5,15.6-12.7,15.6C937.2,218.1,934.1,216.2,931.4,213.4z M949.9,202.6c0-8.3-4.1-12.2-9.1-12.2c-3.7,0-6.5,1.9-9.3,5
				v14.6c3,3.1,5.9,4.9,9.3,4.9C946.1,214.8,949.9,211,949.9,202.6z"/>
			<path class="st0" d="M960.9,175.4h3.9v42.2h-3.9V175.4z"/>
			<path class="st0" d="M971.8,202.5c0-10.7,6.8-15.6,13.2-15.6c7,0,12.3,5.4,12.3,15.6v0.7h-21.5c0.1,7.4,4.3,11.6,9.5,11.6
				c4.5,0,7.1-1.9,9.3-5.5l2.4,1.9c-2.6,4.2-6.3,6.8-12,6.8C977.9,218.2,971.8,212.8,971.8,202.5z M993.3,200.2
				c-0.4-5.7-3.1-9.9-8.5-9.9c-4.3,0-8.4,3.1-9.1,9.9H993.3z"/>
			<path class="st0" d="M1016.3,196.3c0-12.8,7-21.7,17.5-21.7c8.5,0,13.3,5.1,15.3,12.9l-3.9,1c-1.9-6.7-5-10.1-11.5-10.1
				c-8.1,0-13.4,7.1-13.4,17.9c0,11.7,5.4,18.5,13.6,18.5c6.3,0,10.2-3.6,12-10.7l3.9,0.9c-2.1,8.3-7.5,13.5-16,13.5
				C1023.2,218.3,1016.3,209.7,1016.3,196.3z"/>
			<path class="st0" d="M1055.3,202.6c0-10,6.2-15.6,13.6-15.6c7.3,0,13.6,5.6,13.6,15.6c0,10-6.2,15.6-13.6,15.6
				C1061.6,218.2,1055.3,212.5,1055.3,202.6z M1078.6,202.5c0-6.6-3.3-12.2-9.6-12.2c-6.1,0-9.7,5.1-9.7,12.2
				c0,6.7,3.2,12.3,9.7,12.3C1075,214.8,1078.6,209.7,1078.6,202.5z"/>
			<path class="st0" d="M1089.3,187.5h3.9v4.7c3-3,6.5-5.3,11-5.3c5.1,0,7.3,2.2,8.3,5.4c3.1-3,6.9-5.4,11.3-5.4
				c6.2,0,8.7,3.5,8.7,8.9v21.7h-3.9v-21c0-4.2-1.4-6.3-5.6-6.3c-3.6,0-6.7,2-10,5.2v22h-3.9v-21c0-4.2-1.4-6.3-5.7-6.3
				c-3.6,0-6.7,2-10,5.2v22h-3.9V187.5z"/>
			<path class="st0" d="M1140.7,187.5h3.9v4.3c2.4-2.6,5.5-4.8,10-4.8c6.9,0,12.4,5.1,12.4,15.6c0,10.5-5.5,15.6-12.7,15.6
				c-3.9,0-7-1.9-9.7-4.6v15.5h-3.9V187.5z M1163.1,202.6c0-8.3-4.1-12.2-9.1-12.2c-3.7,0-6.5,1.9-9.3,5v14.6c3,3.1,5.9,4.9,9.3,4.9
				C1159.3,214.8,1163.1,211,1163.1,202.6z"/>
			<path class="st0" d="M1171.9,210.5c0-5.9,5.1-10.3,20.3-12.6v-1.5c0-4.2-2.2-6.2-6.1-6.2c-4.7,0-8.1,2-11.2,4.7l-2.1-2.5
				c3.6-3.3,7.7-5.6,13.7-5.6c6.7,0,9.6,3.6,9.6,9.6v13.6c0,3.6,0.2,5.9,0.9,7.4h-4c-0.4-1.3-0.7-2.6-0.7-4.3
				c-3.5,3.1-7.4,4.8-11.9,4.8C1175.1,218.1,1171.9,215.2,1171.9,210.5z M1192.3,210.1v-9.3c-12.9,2.2-16.5,5.4-16.5,9.3
				c0,3.1,2.1,4.8,5.5,4.8C1185.5,214.8,1189.2,213,1192.3,210.1z"/>
			<path class="st0" d="M1204.3,187.5h3.9v4.7c2.9-2.8,6.7-5.3,11.5-5.3c5.9,0,8.9,3.3,8.9,8.9v21.7h-3.9v-21c0-4.2-1.9-6.3-6-6.3
				c-3.9,0-7.1,2-10.5,5.2v22h-3.9V187.5z"/>
			<path class="st0" d="M1232,228.4l0.9-3.2c0.9,0.2,2.2,0.5,4.2,0.5c3.2,0,4.9-1.4,6.2-4.6l1.3-3.3l-11.6-30.2h4.2l9.3,25.4h0.1
				l9.3-25.4h4.1L1247,221c-2,5.4-4.3,8-10,8C1234.7,229.1,1233.2,228.8,1232,228.4z"/>
		</g>
		<g>
			<g>
				<path class="st1" d="M1108.4,124.9v-20.3c14.1-4.5,24-16.9,24-38.1c0-21.2-9.9-33.7-24-38.1V8.2c25.6,0.6,46.8,28,46.3,58.2
					C1155.2,96.6,1134.1,124.4,1108.4,124.9"/>
				<path class="st1" d="M1077.1,8.2v20.3c-14.1,4.5-24,16.9-24,38.1c0,21.2,9.9,33.7,24,38.1v20.3c-25.6-0.6-46.8-28.1-46.3-58.2
					C1030.3,36.6,1051.5,8.7,1077.1,8.2"/>
			</g>
			<polygon class="st0" points="5.2,9.7 5.2,27.1 45,27.1 45,123.4 64.5,123.4 64.5,27.1 104.5,27.1 104.5,9.7 			"/>
			<g>
				<path class="st0" d="M170.8,62.2c13,0,20.5-7,20.5-18.2s-7-16.9-20.5-16.9H144v35.1H170.8z M124.3,9.7h51.2
					c20,0,35.3,13.2,35.3,30.9c0,14.5-6.8,24.4-19,28.8c12.4,0,17.4,5,17.4,16.1v38h-19.5V90.3c0-8.6-2.4-10.9-10.9-10.9H144v44
					h-19.7V9.7z"/>
			</g>
			<path class="st0" d="M281.3,30l18.5,48.1h-37.1L281.3,30z M270.1,9.7l-45,113.8h20.3l10.7-27.8h50.5l10.7,27.8h20.5L293.7,9.7
				H270.1z"/>
			<polygon class="st0" points="430.4,9.7 430.4,97.6 382.3,9.7 356.1,9.7 356.1,123.4 375.8,123.4 375.8,35.3 423.9,123.4 
				449.9,123.4 449.9,9.7 			"/>
			<path class="st0" d="M491.6,85.9c0.3,13.3,10.7,21.8,27.3,21.8h1.6c13.2,0,20.8-7,20.8-15.3c0-7.8-4.2-12.4-15.1-14.5L506.9,74
				c-19.3-4.1-29.1-15.1-29.1-32.5c0-17.9,16.1-33.5,42.1-33.5c26.2,0,42.3,15,42.6,36.7H543c-1-12.2-10.1-19.3-22.8-19.3h-1.6
				c-12.8,0-21.3,6.8-21.3,15.4c0,8,4.7,12.2,14.6,14.3l17.6,3.4c20.2,4.1,31.4,14.6,31.4,32.7c0,19.8-16.4,33.8-43.2,33.8
				c-28.9,0-44.5-14.8-45.5-39.2H491.6z"/>
			<path class="st0" d="M633.9,62.7c12.5,0,19.5-6.7,19.5-17.7c0-11.2-7-17.9-19.5-17.9h-27.8v35.6H633.9z M586.4,9.7h49.9
				c21.5,0,36.6,13,36.6,35.3c0,21.9-15.1,35.3-36.6,35.3h-30.2v43.2h-19.7V9.7z"/>
			<path class="st0" d="M743.9,107.7c20.8,0,34.3-15.6,34.3-41.1s-13.5-41.1-34.3-41.1h-1.6c-20.6,0-34.1,15.6-34.1,41.1
				s13.5,41.1,34.1,41.1H743.9z M743.1,8c31.5-0.5,54.9,22.8,54.6,58.5c0,36.1-22.8,58.5-54.6,58.5s-54.6-22.4-54.6-58.5
				C688.2,30.8,711.4,7.6,743.1,8"/>
			<path class="st0" d="M868.7,62.2c13,0,20.5-7,20.5-18.2s-7-16.9-20.5-16.9h-26.8v35.1H868.7z M822.3,9.7h51.2
				c20,0,35.3,13.2,35.3,30.9c0,14.5-6.8,24.4-19,28.8c12.4,0,17.4,5,17.4,16.1v38h-19.5V90.3c0-8.6-2.4-10.9-10.9-10.9h-34.8v44
				h-19.7V9.7z"/>
			<polygon class="st0" points="936.2,9.7 936.2,123.4 1022.7,123.4 1022.7,106.1 955.9,106.1 955.9,73.7 1011.3,73.7 1011.3,56.3 
				955.9,56.3 955.9,27.1 1021,27.1 1021,9.7 			"/>
			<polygon class="st0" points="1241.9,9.7 1241.9,97.6 1193.8,9.7 1167.6,9.7 1167.6,123.4 1187.3,123.4 1187.3,35.3 1235.4,123.4 
				1261.4,123.4 1261.4,9.7 			"/>
		</g>
	</g>
</g>
<g id="Layer_3">
</g>
<g id="Layer_5">
</g>
<g id="Layer_6">
</g>
<g id="Layer_4" class="st2">
</g>
</svg>
