<?xml version="1.0" standalone="no"?>
<!DOCTYPE svg PUBLIC "-//W3C//DTD SVG 20010904//EN"
 "http://www.w3.org/TR/2001/REC-SVG-20010904/DTD/svg10.dtd">
<svg version="1.0" xmlns="http://www.w3.org/2000/svg"
 width="700.000000pt" height="700.000000pt" viewBox="0 0 700.000000 700.000000"
 preserveAspectRatio="xMidYMid meet">
<metadata>
Created by potrace 1.14, written by Peter Selinger 2001-2017
</metadata>
<g transform="translate(0.000000,700.000000) scale(0.100000,-0.100000)"
fill="#000000" stroke="none">
<path d="M2497 6704 c-1 -1 -31 -5 -67 -9 -703 -74 -1390 -530 -1846 -1225
-107 -164 -119 -185 -218 -385 -121 -245 -188 -422 -251 -671 -37 -142 -38
-146 -61 -274 -41 -228 -49 -344 -49 -680 1 -308 8 -406 45 -620 5 -30 12 -71
15 -90 13 -81 70 -294 112 -420 339 -1018 1091 -1781 1978 -2004 125 -31 306
-57 420 -60 l40 -1 1 552 c0 304 -2 556 -5 561 -3 4 -37 18 -76 31 -160 55
-363 163 -505 269 -80 60 -240 215 -306 295 -95 118 -233 354 -282 487 -95
251 -150 497 -170 753 -13 173 -6 555 12 667 3 14 10 59 16 100 44 298 157
615 301 841 29 46 56 86 59 89 3 3 25 32 49 64 98 132 275 291 451 406 79 51
278 147 381 184 l75 27 0 559 0 558 -59 -1 c-32 -1 -59 -3 -60 -3z"/>
<path d="M4384 6133 l0 -559 65 -23 c395 -135 722 -389 946 -736 46 -71 126
-227 159 -310 29 -73 84 -235 90 -270 3 -11 13 -58 24 -105 27 -113 51 -280
61 -421 8 -110 6 -453 -3 -534 -12 -114 -17 -155 -26 -205 -5 -30 -12 -71 -15
-90 -17 -101 -86 -339 -121 -417 -8 -17 -14 -34 -14 -37 0 -17 -119 -241 -167
-316 -97 -149 -231 -298 -363 -405 -25 -20 -52 -42 -61 -49 -91 -74 -314 -194
-469 -253 l-105 -39 -1 -558 0 -559 105 7 c58 3 122 8 141 11 44 7 128 23 155
29 93 21 123 29 196 52 249 78 506 212 730 382 141 107 165 128 309 272 172
172 312 347 434 545 31 50 59 95 63 100 11 15 34 57 85 155 138 268 234 531
307 840 33 141 38 169 66 370 28 197 28 752 0 935 -2 17 -6 48 -9 70 -7 56
-35 216 -42 237 -3 10 -7 28 -10 40 -10 54 -14 71 -34 145 -66 238 -130 408
-238 633 -92 189 -248 440 -368 589 -327 409 -694 695 -1111 865 -233 95 -446
145 -686 162 l-93 6 0 -559z"/>
</g>
</svg>
